# xmcd
#
# Track frame offsets:
#	151
#	13280
#	33790
#	50633
#	64556
#	82771
#	100339
#	113194
#	141064
#	156358
#	175870
#	194071
#	210244
#	230254
#	251050
#
# Disc length: 3605 seconds
#
# Revision: 6
# Processed by: cddbd v1.5PL3 Copyright (c) Steve Scherf et al.
# Submitted via: dBpowerAMP V4.0
#
DISCID=c60e130f
DTITLE=Bryan Ferry - The Ultimate Collection (With Roxy Music)
DYEAR=1988
DGENRE=Rock
TTITLE0=Let's Stick Together ('88 Remix)
TTITLE1=The 'IN' Crowd
TTITLE2=Dance Away
TTITLE3=Angel Eyes
TTITLE4=He'll Have To Go
TTITLE5=Tokyo Joe
TTITLE6=All I Want Is You
TTITLE7=Jealous Guy
TTITLE8=The Price Of Love
TTITLE9=Don't Stop The Dance
TTITLE10=Love Is The Drug
TTITLE11=This Is Tomorrow
TTITLE12=Slave To Love
TTITLE13=Help Me
TTITLE14=Avalon
EXTD=
EXTT0=
EXTT1=
EXTT2=
EXTT3=
EXTT4=
EXTT5=
EXTT6=
EXTT7=
EXTT8=
EXTT9=
EXTT10=
EXTT11=
EXTT12=
EXTT13=
EXTT14=
PLAYORDER=
